PathFileType	4	(X/Y/Z)	OpenSim_Sub03_EMGStiffKnee_Magnet.trc
DataRate	CameraRate	NumFrames	NumMarkers	Units	OrigDataRate	OrigDataStartFrame	OrigNumFrames
100	100	20	8	m	100	6648	7597
Frame#	Time	torso_imu_offset_imu	pelvis_imu_offset_imu	tibia_r_imu_offset_imu	femur_r_imu_offset_imu	tibia_l_imu_offset_imu	femur_l_imu_offset_imu	toes_r_imu_offset_imu	toes_l_imu_offset_imu
				X1	Y1	Z1	X2	Y2	Z2	X3	Y3	Z3	X4	Y4	Z4	X5	Y5	Z5	X6	Y6	Z6	X7	Y7	Z7	X8		Y8	Z8	

6648	66.47000000	-0.88135738	-0.11086789	0.30966673	-0.67662406	-0.03154836	-0.66962115	-0.54043997	-0.61235749	0.01720560	-0.65548147	-0.50016297	0.15705588	-0.75617751	0.26781543	0.06563279	-0.78422764	0.23106932	0.22512876	-0.68145960	-0.21271092	-0.35512294	-0.59914010	-0.22437979	-0.47863110
6649	66.48000000	-0.87392324	-0.11021373	0.30243093	-0.67718091	-0.02740752	-0.66617477	-0.53404862	-0.62304737	0.01469338	-0.65103223	-0.50402426	0.15165420	-0.75942026	0.25741252	0.07080302	-0.78283727	0.22044887	0.21838509	-0.68386638	-0.21499966	-0.35527846	-0.59392444	-0.22826103	-0.47569853
6650	66.49000000	-0.87341067	-0.11194519	0.30387065	-0.68014567	-0.02502433	-0.66660579	-0.52210182	-0.62467666	0.01693389	-0.64716508	-0.50679328	0.15190838	-0.76110129	0.24790565	0.07082810	-0.78388637	0.21079794	0.22494617	-0.68211173	-0.21509057	-0.35014522	-0.58583383	-0.23299953	-0.48429300
6651	66.50000000	-0.88192030	-0.11740844	0.30043858	-0.68004821	-0.02736478	-0.65754829	-0.51662513	-0.62651730	0.01273551	-0.64561838	-0.51584599	0.15130885	-0.76297315	0.23901042	0.06994474	-0.78839332	0.20320830	0.22457243	-0.68500968	-0.21875471	-0.34952250	-0.57990015	-0.23491426	-0.49296160
6652	66.51000000	-0.87704874	-0.11791156	0.29994632	-0.68371334	-0.01992410	-0.65521464	-0.51449381	-0.63604556	0.00832494	-0.64134394	-0.51717805	0.14492002	-0.76627627	0.23205844	0.07266730	-0.78715725	0.18825369	0.22829915	-0.68450022	-0.22997131	-0.35122934	-0.57387515	-0.24134755	-0.49393790
6653	66.52000000	-0.88023139	-0.12037011	0.29856126	-0.68563629	-0.01395131	-0.65454990	-0.50431627	-0.64402832	0.01038251	-0.64005549	-0.51724784	0.14251853	-0.77152710	0.22380716	0.07331079	-0.78756267	0.18346412	0.23507480	-0.68436013	-0.22880384	-0.34598204	-0.56664273	-0.24090594	-0.50103006
6654	66.53000000	-0.87974417	-0.12737823	0.29289295	-0.68397024	-0.01571276	-0.65006899	-0.49837236	-0.64764911	0.01027872	-0.63921458	-0.51977486	0.14454461	-0.77066784	0.21637373	0.07695562	-0.79021330	0.18571854	0.23327533	-0.68956207	-0.23159984	-0.34243959	-0.56174892	-0.24292945	-0.49984599
6655	66.54000000	-0.87528032	-0.12853795	0.29439642	-0.69268865	-0.00702787	-0.64572230	-0.49127319	-0.65584397	0.00526012	-0.63482185	-0.52171470	0.13522648	-0.76941646	0.21022072	0.08017273	-0.79133456	0.17739721	0.23687136	-0.68515584	-0.23597806	-0.34056568	-0.55582685	-0.24666994	-0.50781846
6656	66.55000000	-0.87825594	-0.13244793	0.29087312	-0.70075398	-0.00261305	-0.64238299	-0.48295381	-0.65995918	0.00670251	-0.63358456	-0.52323661	0.12833906	-0.76935085	0.20257325	0.08371188	-0.78477498	0.16812965	0.23548690	-0.68561052	-0.23531425	-0.33839999	-0.54807485	-0.24649558	-0.51160911
6657	66.56000000	-0.88139193	-0.14114522	0.28328676	-0.69737263	0.00205909	-0.64275710	-0.47058173	-0.67290210	0.00326999	-0.63360887	-0.52996850	0.12416576	-0.76942501	0.20049134	0.07921093	-0.78623315	0.16773891	0.24237897	-0.69158923	-0.24079359	-0.33661833	-0.54725702	-0.24805029	-0.51136446
6658	66.57000000	-0.87978211	-0.14660804	0.28080571	-0.69912586	0.00721751	-0.62575442	-0.46077997	-0.67692339	-0.00257990	-0.63368258	-0.53697859	0.12202638	-0.76775673	0.19199417	0.08655389	-0.78814549	0.16224799	0.24296313	-0.68813197	-0.24171673	-0.33181139	-0.54198032	-0.25008892	-0.50734189
6659	66.58000000	-0.87898447	-0.15055424	0.27646119	-0.70401133	0.01134545	-0.62471377	-0.45226432	-0.68027645	-0.00474736	-0.63064995	-0.53212461	0.11611547	-0.76417129	0.19340536	0.08460883	-0.78641660	0.16183927	0.24627260	-0.69165251	-0.24881947	-0.32210092	-0.53943698	-0.25500647	-0.50962483
6660	66.59000000	-0.87915568	-0.15482875	0.27659364	-0.70885192	0.01388308	-0.62116703	-0.44591305	-0.68855383	-0.00953052	-0.62760538	-0.53161907	0.11103857	-0.76991431	0.19216744	0.09070849	-0.78249207	0.16305971	0.24064947	-0.69466381	-0.25880328	-0.31232715	-0.53957525	-0.26430192	-0.51089571
6661	66.60000000	-0.87826142	-0.15877834	0.26760217	-0.70954823	0.01672542	-0.61014575	-0.43330889	-0.69759121	-0.01759423	-0.62686694	-0.53226394	0.10288921	-0.76812471	0.18872966	0.08965733	-0.79063961	0.16453212	0.23858399	-0.69987899	-0.26400146	-0.30734935	-0.53998047	-0.26723642	-0.51108254
6662	66.61000000	-0.88171697	-0.16589536	0.25432164	-0.71434725	0.02463991	-0.60587050	-0.41898809	-0.70149374	-0.01551720	-0.62950829	-0.53552189	0.09718819	-0.76691855	0.19716976	0.09438045	-0.78629633	0.16490666	0.24351451	-0.70068417	-0.26696469	-0.30135478	-0.55044469	-0.26418491	-0.48282139
6663	66.62000000	-0.88288418	-0.17509359	0.24994927	-0.71926279	0.03121496	-0.60803839	-0.40886335	-0.71413090	-0.02498526	-0.63488014	-0.53659309	0.09115530	-0.76262494	0.19708986	0.09861990	-0.78245713	0.16677609	0.24652640	-0.69796269	-0.27769131	-0.28624024	-0.56701387	-0.25724580	-0.47422594
6664	66.63000000	-0.88247487	-0.18032437	0.23879628	-0.71663627	0.03942082	-0.59465559	-0.39132592	-0.72186879	-0.03075054	-0.63218482	-0.53847327	0.08423148	-0.75654029	0.20331501	0.10605119	-0.77249312	0.16683982	0.24656837	-0.70524729	-0.28600536	-0.27056588	-0.59081933	-0.25621435	-0.45162014
6665	66.64000000	-0.88092965	-0.18439661	0.23157723	-0.72438338	0.04314962	-0.58950344	-0.37652218	-0.72578270	-0.03360980	-0.63318106	-0.53634954	0.07728016	-0.75525950	0.21832062	0.11768106	-0.77480485	0.17234637	0.24960427	-0.70706482	-0.29296019	-0.25606610	-0.61072539	-0.25295067	-0.41434099
6666	66.65000000	-0.87914028	-0.18798275	0.22826009	-0.71992787	0.04749107	-0.58995182	-0.36313584	-0.73666911	-0.03698202	-0.64107064	-0.53143521	0.07130226	-0.74887959	0.23395143	0.12490335	-0.77521165	0.17263388	0.25387800	-0.71106530	-0.30332481	-0.24170609	-0.63200478	-0.23954024	-0.38711212
6667	66.66000000	-0.88447617	-0.19750942	0.22207296	-0.72067440	0.05578174	-0.58326079	-0.34593698	-0.73924629	-0.03591724	-0.63930746	-0.52915714	0.06915280	-0.75102366	0.23402400	0.12902321	-0.76818666	0.17308282	0.24922716	-0.71516067	-0.31157824	-0.22271297	-0.65369275	-0.21296843	-0.35770823
